<svg width="381" height="295" fill="none" xmlns="http://www.w3.org/2000/svg"><path d="m73.44 253.111-27.174-23.297c-17.163-14.714-19.149-40.555-4.435-57.718l49.184-57.37c14.714-17.163 40.555-19.148 57.718-4.434l13.587 11.648 13.588 11.648c17.163 14.714 19.148 40.556 4.434 57.719l-24.592 28.685-24.591 28.685c-14.714 17.163-40.556 19.148-57.719 4.434z" stroke="#BBBFC7" stroke-width="21.544"/><path d="m215.622 69.298 23.907-29.259c18.068-22.113 50.641-25.392 72.754-7.324l27.718 22.648c22.113 18.069 25.392 50.642 7.324 72.755l-47.813 58.517c-18.069 22.113-50.642 25.392-72.755 7.323l-13.859-11.323" stroke="#BBBFC7" stroke-width="21.544"/><path d="M175.349 53.671 164 6M175.349 53.671 164 6M175.349 53.671 164 6M222.349 284.671 211 237M222.349 284.671 211 237M222.349 284.671 211 237" stroke="#BBBFC7" stroke-width="21.54"/></svg>