<svg width="26" height="29" viewBox="0 0 26 29" fill="none" xmlns="http://www.w3.org/2000/svg">
<path d="M17.9388 22.1663L17.9037 24.7363C17.8844 26.1558 16.6412 27.2896 15.127 27.269L4.16061 27.1193C2.64646 27.0986 1.43471 25.9312 1.45408 24.5118L1.64705 10.3765C1.66642 8.95705 2.90959 7.82315 4.42374 7.84382L7.16535 7.88125" stroke="#1B13C0" stroke-width="2" stroke-linecap="round" stroke-linejoin="round"/>
<path d="M16.8829 1.52365L10.4611 1.43599C8.94694 1.41532 7.70377 2.54921 7.6844 3.96862L7.4739 19.389C7.45452 20.8084 8.66627 21.9758 10.1804 21.9965L21.1469 22.1462C22.661 22.1668 23.9042 21.033 23.9235 19.6135L24.0772 8.35875C24.0866 7.66712 23.7983 7.00062 23.2773 6.50988L18.7896 2.28227C18.2837 1.80574 17.5994 1.53343 16.8829 1.52365Z" stroke="#F72585" stroke-width="2" stroke-linecap="round" stroke-linejoin="round"/>
</svg>
