<svg width="693" height="548" viewBox="0 0 693 548" fill="none" xmlns="http://www.w3.org/2000/svg">
<g filter="url(#filter0_d_566855_667)">
<mask id="path-1-inside-1_566855_667" fill="white">
<path d="M448 42C448 27.6406 459.641 16 474 16H663C677.359 16 689 27.6406 689 42V470C689 484.359 677.359 496 663 496H474C459.641 496 448 484.359 448 470V42Z"/>
</mask>
<path d="M448 42C448 27.6406 459.641 16 474 16H663C677.359 16 689 27.6406 689 42V470C689 484.359 677.359 496 663 496H474C459.641 496 448 484.359 448 470V42Z" fill="white"/>
<path d="M446 42C446 26.536 458.536 14 474 14H666C681.464 14 694 26.536 694 42H684C684 28.7452 674.598 18 663 18H474C460.745 18 450 28.7452 450 42H446ZM694 471C694 488.121 680.121 502 663 502H474C458.536 502 446 489.464 446 474L450 470C450 481.046 460.745 490 474 490H663C674.598 490 684 481.046 684 470L694 471ZM474 502C458.536 502 446 489.464 446 474V42C446 26.536 458.536 14 474 14V18C460.745 18 450 28.7452 450 42V470C450 481.046 460.745 490 474 490V502ZM666 14C681.464 14 694 26.536 694 42V471C694 488.121 680.121 502 663 502V490C674.598 490 684 481.046 684 470V42C684 28.7452 674.598 18 663 18L666 14Z" fill="#CCC7E9" mask="url(#path-1-inside-1_566855_667)"/>
<mask id="path-3-inside-2_566855_667" fill="white">
<path d="M226 60C226 45.6406 237.641 34 252 34H441C455.359 34 467 45.6406 467 60V488C467 502.359 455.359 514 441 514H252C237.641 514 226 502.359 226 488V60Z"/>
</mask>
<path d="M226 60C226 45.6406 237.641 34 252 34H441C455.359 34 467 45.6406 467 60V488C467 502.359 455.359 514 441 514H252C237.641 514 226 502.359 226 488V60Z" fill="white"/>
<path d="M224 60C224 44.536 236.536 32 252 32H444C459.464 32 472 44.536 472 60H462C462 46.7452 452.598 36 441 36H252C238.745 36 228 46.7452 228 60H224ZM472 489C472 506.121 458.121 520 441 520H252C236.536 520 224 507.464 224 492L228 488C228 499.046 238.745 508 252 508H441C452.598 508 462 499.046 462 488L472 489ZM252 520C236.536 520 224 507.464 224 492V60C224 44.536 236.536 32 252 32V36C238.745 36 228 46.7452 228 60V488C228 499.046 238.745 508 252 508V520ZM444 32C459.464 32 472 44.536 472 60V489C472 506.121 458.121 520 441 520V508C452.598 508 462 499.046 462 488V60C462 46.7452 452.598 36 441 36L444 32Z" fill="#CCC7E9" mask="url(#path-3-inside-2_566855_667)"/>
<g filter="url(#filter1_b_566855_667)">
<mask id="path-5-inside-3_566855_667" fill="white">
<path d="M4 78C4 63.6406 15.6406 52 30 52H219C233.359 52 245 63.6406 245 78V506C245 520.359 233.359 532 219 532H30C15.6406 532 4 520.359 4 506V78Z"/>
</mask>
<path d="M4 78C4 63.6406 15.6406 52 30 52H219C233.359 52 245 63.6406 245 78V506C245 520.359 233.359 532 219 532H30C15.6406 532 4 520.359 4 506V78Z" fill="white"/>
<path d="M2 78C2 62.536 14.536 50 30 50H222C237.464 50 250 62.536 250 78H240C240 64.7452 230.598 54 219 54H30C16.7452 54 6 64.7452 6 78H2ZM250 508C250 525.121 236.121 539 219 539H30C14.536 539 2 526.464 2 511L6 506C6 516.493 16.7452 525 30 525H219C230.598 525 240 516.493 240 506L250 508ZM30 539C14.536 539 2 526.464 2 511V78C2 62.536 14.536 50 30 50V54C16.7452 54 6 64.7452 6 78V506C6 516.493 16.7452 525 30 525V539ZM222 50C237.464 50 250 62.536 250 78V508C250 525.121 236.121 539 219 539V525C230.598 525 240 516.493 240 506V78C240 64.7452 230.598 54 219 54L222 50Z" fill="#CCC7E9" mask="url(#path-5-inside-3_566855_667)"/>
</g>
</g>
<path d="M89.7573 93.2266V100H88.3042V91.5469H89.6792L89.7573 93.2266ZM89.4604 95.4531L88.7886 95.4297C88.7938 94.8516 88.8693 94.3177 89.0151 93.8281C89.161 93.3333 89.3771 92.9036 89.6636 92.5391C89.95 92.1745 90.3068 91.8932 90.7339 91.6953C91.161 91.4922 91.6558 91.3906 92.2183 91.3906C92.6141 91.3906 92.9787 91.4479 93.312 91.5625C93.6453 91.6719 93.9344 91.8464 94.1792 92.0859C94.424 92.3255 94.6141 92.6328 94.7495 93.0078C94.8849 93.3828 94.9526 93.8359 94.9526 94.3672V100H93.5073V94.4375C93.5073 93.9948 93.4318 93.6406 93.2808 93.375C93.1349 93.1094 92.9266 92.9167 92.6558 92.7969C92.3849 92.6719 92.0672 92.6094 91.7026 92.6094C91.2756 92.6094 90.9188 92.6849 90.6323 92.8359C90.3459 92.987 90.1167 93.1953 89.9448 93.4609C89.7729 93.7266 89.6479 94.0312 89.5698 94.375C89.4969 94.7135 89.4604 95.0729 89.4604 95.4531ZM94.937 94.6562L93.9683 94.9531C93.9735 94.4896 94.049 94.0443 94.1948 93.6172C94.3459 93.1901 94.562 92.8099 94.8433 92.4766C95.1297 92.1432 95.4813 91.8802 95.8979 91.6875C96.3146 91.4896 96.7912 91.3906 97.3276 91.3906C97.7808 91.3906 98.1818 91.4505 98.5308 91.5703C98.8849 91.6901 99.1818 91.875 99.4214 92.125C99.6662 92.3698 99.8511 92.6849 99.9761 93.0703C100.101 93.4557 100.164 93.9141 100.164 94.4453V100H98.7104V94.4297C98.7104 93.9557 98.6349 93.5885 98.4839 93.3281C98.3381 93.0625 98.1297 92.8776 97.8589 92.7734C97.5933 92.6641 97.2756 92.6094 96.9058 92.6094C96.5881 92.6094 96.3068 92.6641 96.062 92.7734C95.8172 92.8828 95.6115 93.0339 95.4448 93.2266C95.2782 93.4141 95.1506 93.6302 95.062 93.875C94.9787 94.1198 94.937 94.3802 94.937 94.6562ZM107.523 98.0469V91.5469H108.976V100H107.593L107.523 98.0469ZM107.796 96.2656L108.398 96.25C108.398 96.8125 108.338 97.3333 108.218 97.8125C108.104 98.2865 107.916 98.6979 107.656 99.0469C107.395 99.3958 107.054 99.6693 106.632 99.8672C106.21 100.06 105.697 100.156 105.093 100.156C104.682 100.156 104.304 100.096 103.96 99.9766C103.622 99.8568 103.33 99.6719 103.085 99.4219C102.841 99.1719 102.651 98.8464 102.515 98.4453C102.385 98.0443 102.32 97.5625 102.32 97V91.5469H103.765V97.0156C103.765 97.3958 103.807 97.7109 103.89 97.9609C103.979 98.2057 104.096 98.401 104.242 98.5469C104.393 98.6875 104.559 98.7865 104.742 98.8438C104.929 98.901 105.122 98.9297 105.32 98.9297C105.934 98.9297 106.421 98.8125 106.781 98.5781C107.14 98.3385 107.398 98.0182 107.554 97.6172C107.716 97.2109 107.796 96.7604 107.796 96.2656ZM116.101 97.7578C116.101 97.5495 116.054 97.3568 115.96 97.1797C115.872 96.9974 115.687 96.8333 115.406 96.6875C115.13 96.5365 114.713 96.4062 114.156 96.2969C113.687 96.1979 113.263 96.0807 112.882 95.9453C112.507 95.8099 112.187 95.6458 111.921 95.4531C111.661 95.2604 111.46 95.0339 111.32 94.7734C111.179 94.513 111.109 94.2083 111.109 93.8594C111.109 93.526 111.182 93.2109 111.328 92.9141C111.479 92.6172 111.69 92.3542 111.96 92.125C112.236 91.8958 112.567 91.7161 112.953 91.5859C113.338 91.4557 113.768 91.3906 114.242 91.3906C114.919 91.3906 115.497 91.5104 115.976 91.75C116.455 91.9896 116.822 92.3099 117.078 92.7109C117.333 93.1068 117.46 93.5469 117.46 94.0312H116.015C116.015 93.7969 115.945 93.5703 115.804 93.3516C115.669 93.1276 115.468 92.9427 115.203 92.7969C114.942 92.651 114.622 92.5781 114.242 92.5781C113.841 92.5781 113.515 92.6406 113.265 92.7656C113.02 92.8854 112.841 93.0391 112.726 93.2266C112.617 93.4141 112.562 93.612 112.562 93.8203C112.562 93.9766 112.588 94.1172 112.64 94.2422C112.697 94.362 112.796 94.474 112.937 94.5781C113.078 94.6771 113.276 94.7708 113.531 94.8594C113.786 94.9479 114.111 95.0365 114.507 95.125C115.2 95.2812 115.77 95.4688 116.218 95.6875C116.666 95.9062 117 96.1745 117.218 96.4922C117.437 96.8099 117.546 97.1953 117.546 97.6484C117.546 98.0182 117.468 98.3568 117.312 98.6641C117.161 98.9714 116.94 99.237 116.648 99.4609C116.361 99.6797 116.018 99.8516 115.617 99.9766C115.221 100.096 114.776 100.156 114.281 100.156C113.536 100.156 112.906 100.023 112.39 99.7578C111.875 99.4922 111.484 99.1484 111.218 98.7266C110.953 98.3047 110.82 97.8594 110.82 97.3906H112.273C112.294 97.7865 112.408 98.1016 112.617 98.3359C112.825 98.5651 113.08 98.7292 113.382 98.8281C113.684 98.9219 113.984 98.9688 114.281 98.9688C114.677 98.9688 115.007 98.9167 115.273 98.8125C115.544 98.7083 115.75 98.5651 115.89 98.3828C116.031 98.2005 116.101 97.9922 116.101 97.7578ZM121.015 91.5469V100H119.562V91.5469H121.015ZM119.453 89.3047C119.453 89.0703 119.523 88.8724 119.664 88.7109C119.809 88.5495 120.023 88.4688 120.304 88.4688C120.58 88.4688 120.791 88.5495 120.937 88.7109C121.088 88.8724 121.164 89.0703 121.164 89.3047C121.164 89.5286 121.088 89.7214 120.937 89.8828C120.791 90.0391 120.58 90.1172 120.304 90.1172C120.023 90.1172 119.809 90.0391 119.664 89.8828C119.523 89.7214 119.453 89.5286 119.453 89.3047ZM126.718 98.9688C127.062 98.9688 127.38 98.8984 127.671 98.7578C127.963 98.6172 128.203 98.4245 128.39 98.1797C128.578 97.9297 128.684 97.6458 128.71 97.3281H130.085C130.059 97.8281 129.89 98.2943 129.578 98.7266C129.27 99.1536 128.867 99.5 128.367 99.7656C127.867 100.026 127.317 100.156 126.718 100.156C126.083 100.156 125.528 100.044 125.054 99.8203C124.585 99.5964 124.195 99.2891 123.882 98.8984C123.575 98.5078 123.343 98.0599 123.187 97.5547C123.036 97.0443 122.96 96.5052 122.96 95.9375V95.6094C122.96 95.0417 123.036 94.5052 123.187 94C123.343 93.4896 123.575 93.0391 123.882 92.6484C124.195 92.2578 124.585 91.9505 125.054 91.7266C125.528 91.5026 126.083 91.3906 126.718 91.3906C127.38 91.3906 127.958 91.526 128.453 91.7969C128.947 92.0625 129.335 92.4271 129.617 92.8906C129.903 93.349 130.059 93.8698 130.085 94.4531H128.71C128.684 94.1042 128.585 93.7891 128.414 93.5078C128.247 93.2266 128.018 93.0026 127.726 92.8359C127.44 92.6641 127.104 92.5781 126.718 92.5781C126.276 92.5781 125.903 92.6667 125.601 92.8438C125.304 93.0156 125.067 93.25 124.89 93.5469C124.718 93.8385 124.593 94.1641 124.515 94.5234C124.442 94.8776 124.406 95.2396 124.406 95.6094V95.9375C124.406 96.3073 124.442 96.6719 124.515 97.0312C124.588 97.3906 124.71 97.7161 124.882 98.0078C125.059 98.2995 125.296 98.5339 125.593 98.7109C125.895 98.8828 126.27 98.9688 126.718 98.9688ZM131.734 99.2344C131.734 98.9896 131.809 98.7839 131.96 98.6172C132.117 98.4453 132.341 98.3594 132.632 98.3594C132.924 98.3594 133.145 98.4453 133.296 98.6172C133.453 98.7839 133.531 98.9896 133.531 99.2344C133.531 99.474 133.453 99.6771 133.296 99.8438C133.145 100.01 132.924 100.094 132.632 100.094C132.341 100.094 132.117 100.01 131.96 99.8438C131.809 99.6771 131.734 99.474 131.734 99.2344ZM139.312 98.9688C139.656 98.9688 139.973 98.8984 140.265 98.7578C140.557 98.6172 140.796 98.4245 140.984 98.1797C141.171 97.9297 141.278 97.6458 141.304 97.3281H142.679C142.653 97.8281 142.484 98.2943 142.171 98.7266C141.864 99.1536 141.46 99.5 140.96 99.7656C140.46 100.026 139.911 100.156 139.312 100.156C138.677 100.156 138.122 100.044 137.648 99.8203C137.179 99.5964 136.789 99.2891 136.476 98.8984C136.169 98.5078 135.937 98.0599 135.781 97.5547C135.63 97.0443 135.554 96.5052 135.554 95.9375V95.6094C135.554 95.0417 135.63 94.5052 135.781 94C135.937 93.4896 136.169 93.0391 136.476 92.6484C136.789 92.2578 137.179 91.9505 137.648 91.7266C138.122 91.5026 138.677 91.3906 139.312 91.3906C139.973 91.3906 140.552 91.526 141.046 91.7969C141.541 92.0625 141.929 92.4271 142.21 92.8906C142.497 93.349 142.653 93.8698 142.679 94.4531H141.304C141.278 94.1042 141.179 93.7891 141.007 93.5078C140.841 93.2266 140.611 93.0026 140.32 92.8359C140.033 92.6641 139.697 92.5781 139.312 92.5781C138.869 92.5781 138.497 92.6667 138.195 92.8438C137.898 93.0156 137.661 93.25 137.484 93.5469C137.312 93.8385 137.187 94.1641 137.109 94.5234C137.036 94.8776 137 95.2396 137 95.6094V95.9375C137 96.3073 137.036 96.6719 137.109 97.0312C137.182 97.3906 137.304 97.7161 137.476 98.0078C137.653 98.2995 137.89 98.5339 138.187 98.7109C138.489 98.8828 138.864 98.9688 139.312 98.9688ZM143.921 95.8672V95.6875C143.921 95.0781 144.01 94.513 144.187 93.9922C144.364 93.4661 144.619 93.0104 144.953 92.625C145.286 92.2344 145.69 91.9323 146.164 91.7188C146.638 91.5 147.169 91.3906 147.757 91.3906C148.351 91.3906 148.885 91.5 149.359 91.7188C149.838 91.9323 150.244 92.2344 150.578 92.625C150.916 93.0104 151.174 93.4661 151.351 93.9922C151.528 94.513 151.617 95.0781 151.617 95.6875V95.8672C151.617 96.4766 151.528 97.0417 151.351 97.5625C151.174 98.0833 150.916 98.5391 150.578 98.9297C150.244 99.3151 149.841 99.6172 149.367 99.8359C148.898 100.049 148.367 100.156 147.773 100.156C147.179 100.156 146.645 100.049 146.171 99.8359C145.697 99.6172 145.291 99.3151 144.953 98.9297C144.619 98.5391 144.364 98.0833 144.187 97.5625C144.01 97.0417 143.921 96.4766 143.921 95.8672ZM145.367 95.6875V95.8672C145.367 96.2891 145.416 96.6875 145.515 97.0625C145.614 97.4323 145.763 97.7604 145.96 98.0469C146.164 98.3333 146.416 98.5599 146.718 98.7266C147.02 98.888 147.372 98.9688 147.773 98.9688C148.169 98.9688 148.515 98.888 148.812 98.7266C149.114 98.5599 149.364 98.3333 149.562 98.0469C149.76 97.7604 149.908 97.4323 150.007 97.0625C150.111 96.6875 150.164 96.2891 150.164 95.8672V95.6875C150.164 95.2708 150.111 94.8776 150.007 94.5078C149.908 94.1328 149.757 93.8021 149.554 93.5156C149.356 93.224 149.106 92.9948 148.804 92.8281C148.507 92.6615 148.158 92.5781 147.757 92.5781C147.361 92.5781 147.013 92.6615 146.71 92.8281C146.414 92.9948 146.164 93.224 145.96 93.5156C145.763 93.8021 145.614 94.1328 145.515 94.5078C145.416 94.8776 145.367 95.2708 145.367 95.6875ZM154.867 93.2266V100H153.414V91.5469H154.789L154.867 93.2266ZM154.57 95.4531L153.898 95.4297C153.903 94.8516 153.979 94.3177 154.125 93.8281C154.27 93.3333 154.486 92.9036 154.773 92.5391C155.059 92.1745 155.416 91.8932 155.843 91.6953C156.27 91.4922 156.765 91.3906 157.328 91.3906C157.723 91.3906 158.088 91.4479 158.421 91.5625C158.755 91.6719 159.044 91.8464 159.289 92.0859C159.533 92.3255 159.723 92.6328 159.859 93.0078C159.994 93.3828 160.062 93.8359 160.062 94.3672V100H158.617V94.4375C158.617 93.9948 158.541 93.6406 158.39 93.375C158.244 93.1094 158.036 92.9167 157.765 92.7969C157.494 92.6719 157.177 92.6094 156.812 92.6094C156.385 92.6094 156.028 92.6849 155.742 92.8359C155.455 92.987 155.226 93.1953 155.054 93.4609C154.882 93.7266 154.757 94.0312 154.679 94.375C154.606 94.7135 154.57 95.0729 154.57 95.4531ZM160.046 94.6562L159.078 94.9531C159.083 94.4896 159.158 94.0443 159.304 93.6172C159.455 93.1901 159.671 92.8099 159.953 92.4766C160.239 92.1432 160.591 91.8802 161.007 91.6875C161.424 91.4896 161.901 91.3906 162.437 91.3906C162.89 91.3906 163.291 91.4505 163.64 91.5703C163.994 91.6901 164.291 91.875 164.531 92.125C164.776 92.3698 164.96 92.6849 165.085 93.0703C165.21 93.4557 165.273 93.9141 165.273 94.4453V100H163.82V94.4297C163.82 93.9557 163.744 93.5885 163.593 93.3281C163.447 93.0625 163.239 92.8776 162.968 92.7734C162.703 92.6641 162.385 92.6094 162.015 92.6094C161.697 92.6094 161.416 92.6641 161.171 92.7734C160.927 92.8828 160.721 93.0339 160.554 93.2266C160.388 93.4141 160.26 93.6302 160.171 93.875C160.088 94.1198 160.046 94.3802 160.046 94.6562Z" fill="#F72585"/>
<path d="M309.757 75.2266V82H308.304V73.5469H309.679L309.757 75.2266ZM309.46 77.4531L308.789 77.4297C308.794 76.8516 308.869 76.3177 309.015 75.8281C309.161 75.3333 309.377 74.9036 309.664 74.5391C309.95 74.1745 310.307 73.8932 310.734 73.6953C311.161 73.4922 311.656 73.3906 312.218 73.3906C312.614 73.3906 312.979 73.4479 313.312 73.5625C313.645 73.6719 313.934 73.8464 314.179 74.0859C314.424 74.3255 314.614 74.6328 314.75 75.0078C314.885 75.3828 314.953 75.8359 314.953 76.3672V82H313.507V76.4375C313.507 75.9948 313.432 75.6406 313.281 75.375C313.135 75.1094 312.927 74.9167 312.656 74.7969C312.385 74.6719 312.067 74.6094 311.703 74.6094C311.276 74.6094 310.919 74.6849 310.632 74.8359C310.346 74.987 310.117 75.1953 309.945 75.4609C309.773 75.7266 309.648 76.0312 309.57 76.375C309.497 76.7135 309.46 77.0729 309.46 77.4531ZM314.937 76.6562L313.968 76.9531C313.973 76.4896 314.049 76.0443 314.195 75.6172C314.346 75.1901 314.562 74.8099 314.843 74.4766C315.13 74.1432 315.481 73.8802 315.898 73.6875C316.315 73.4896 316.791 73.3906 317.328 73.3906C317.781 73.3906 318.182 73.4505 318.531 73.5703C318.885 73.6901 319.182 73.875 319.421 74.125C319.666 74.3698 319.851 74.6849 319.976 75.0703C320.101 75.4557 320.164 75.9141 320.164 76.4453V82H318.71V76.4297C318.71 75.9557 318.635 75.5885 318.484 75.3281C318.338 75.0625 318.13 74.8776 317.859 74.7734C317.593 74.6641 317.276 74.6094 316.906 74.6094C316.588 74.6094 316.307 74.6641 316.062 74.7734C315.817 74.8828 315.611 75.0339 315.445 75.2266C315.278 75.4141 315.151 75.6302 315.062 75.875C314.979 76.1198 314.937 76.3802 314.937 76.6562ZM327.523 80.0469V73.5469H328.976V82H327.593L327.523 80.0469ZM327.796 78.2656L328.398 78.25C328.398 78.8125 328.338 79.3333 328.218 79.8125C328.104 80.2865 327.916 80.6979 327.656 81.0469C327.395 81.3958 327.054 81.6693 326.632 81.8672C326.21 82.0599 325.697 82.1562 325.093 82.1562C324.682 82.1562 324.304 82.0964 323.96 81.9766C323.622 81.8568 323.33 81.6719 323.085 81.4219C322.841 81.1719 322.651 80.8464 322.515 80.4453C322.385 80.0443 322.32 79.5625 322.32 79V73.5469H323.765V79.0156C323.765 79.3958 323.807 79.7109 323.89 79.9609C323.979 80.2057 324.096 80.401 324.242 80.5469C324.393 80.6875 324.559 80.7865 324.742 80.8438C324.929 80.901 325.122 80.9297 325.32 80.9297C325.934 80.9297 326.421 80.8125 326.781 80.5781C327.14 80.3385 327.398 80.0182 327.554 79.6172C327.716 79.2109 327.796 78.7604 327.796 78.2656ZM336.101 79.7578C336.101 79.5495 336.054 79.3568 335.96 79.1797C335.872 78.9974 335.687 78.8333 335.406 78.6875C335.13 78.5365 334.713 78.4062 334.156 78.2969C333.687 78.1979 333.263 78.0807 332.882 77.9453C332.507 77.8099 332.187 77.6458 331.921 77.4531C331.661 77.2604 331.46 77.0339 331.32 76.7734C331.179 76.513 331.109 76.2083 331.109 75.8594C331.109 75.526 331.182 75.2109 331.328 74.9141C331.479 74.6172 331.69 74.3542 331.96 74.125C332.236 73.8958 332.567 73.7161 332.953 73.5859C333.338 73.4557 333.768 73.3906 334.242 73.3906C334.919 73.3906 335.497 73.5104 335.976 73.75C336.455 73.9896 336.822 74.3099 337.078 74.7109C337.333 75.1068 337.46 75.5469 337.46 76.0312H336.015C336.015 75.7969 335.945 75.5703 335.804 75.3516C335.669 75.1276 335.468 74.9427 335.203 74.7969C334.942 74.651 334.622 74.5781 334.242 74.5781C333.841 74.5781 333.515 74.6406 333.265 74.7656C333.02 74.8854 332.841 75.0391 332.726 75.2266C332.617 75.4141 332.562 75.612 332.562 75.8203C332.562 75.9766 332.588 76.1172 332.64 76.2422C332.697 76.362 332.796 76.474 332.937 76.5781C333.078 76.6771 333.276 76.7708 333.531 76.8594C333.786 76.9479 334.111 77.0365 334.507 77.125C335.2 77.2812 335.77 77.4688 336.218 77.6875C336.666 77.9062 337 78.1745 337.218 78.4922C337.437 78.8099 337.546 79.1953 337.546 79.6484C337.546 80.0182 337.468 80.3568 337.312 80.6641C337.161 80.9714 336.94 81.237 336.648 81.4609C336.361 81.6797 336.018 81.8516 335.617 81.9766C335.221 82.0964 334.776 82.1562 334.281 82.1562C333.536 82.1562 332.906 82.0234 332.39 81.7578C331.875 81.4922 331.484 81.1484 331.218 80.7266C330.953 80.3047 330.82 79.8594 330.82 79.3906H332.273C332.294 79.7865 332.408 80.1016 332.617 80.3359C332.825 80.5651 333.08 80.7292 333.382 80.8281C333.684 80.9219 333.984 80.9688 334.281 80.9688C334.677 80.9688 335.007 80.9167 335.273 80.8125C335.544 80.7083 335.75 80.5651 335.89 80.3828C336.031 80.2005 336.101 79.9922 336.101 79.7578ZM341.015 73.5469V82H339.562V73.5469H341.015ZM339.453 71.3047C339.453 71.0703 339.523 70.8724 339.664 70.7109C339.809 70.5495 340.023 70.4688 340.304 70.4688C340.58 70.4688 340.791 70.5495 340.937 70.7109C341.088 70.8724 341.164 71.0703 341.164 71.3047C341.164 71.5286 341.088 71.7214 340.937 71.8828C340.791 72.0391 340.58 72.1172 340.304 72.1172C340.023 72.1172 339.809 72.0391 339.664 71.8828C339.523 71.7214 339.453 71.5286 339.453 71.3047ZM346.718 80.9688C347.062 80.9688 347.38 80.8984 347.671 80.7578C347.963 80.6172 348.203 80.4245 348.39 80.1797C348.578 79.9297 348.684 79.6458 348.71 79.3281H350.085C350.059 79.8281 349.89 80.2943 349.578 80.7266C349.27 81.1536 348.867 81.5 348.367 81.7656C347.867 82.026 347.317 82.1562 346.718 82.1562C346.083 82.1562 345.528 82.0443 345.054 81.8203C344.585 81.5964 344.195 81.2891 343.882 80.8984C343.575 80.5078 343.343 80.0599 343.187 79.5547C343.036 79.0443 342.96 78.5052 342.96 77.9375V77.6094C342.96 77.0417 343.036 76.5052 343.187 76C343.343 75.4896 343.575 75.0391 343.882 74.6484C344.195 74.2578 344.585 73.9505 345.054 73.7266C345.528 73.5026 346.083 73.3906 346.718 73.3906C347.38 73.3906 347.958 73.526 348.453 73.7969C348.947 74.0625 349.335 74.4271 349.617 74.8906C349.903 75.349 350.059 75.8698 350.085 76.4531H348.71C348.684 76.1042 348.585 75.7891 348.414 75.5078C348.247 75.2266 348.018 75.0026 347.726 74.8359C347.44 74.6641 347.104 74.5781 346.718 74.5781C346.276 74.5781 345.903 74.6667 345.601 74.8438C345.304 75.0156 345.067 75.25 344.89 75.5469C344.718 75.8385 344.593 76.1641 344.515 76.5234C344.442 76.8776 344.406 77.2396 344.406 77.6094V77.9375C344.406 78.3073 344.442 78.6719 344.515 79.0312C344.588 79.3906 344.71 79.7161 344.882 80.0078C345.059 80.2995 345.296 80.5339 345.593 80.7109C345.895 80.8828 346.27 80.9688 346.718 80.9688ZM351.734 81.2344C351.734 80.9896 351.809 80.7839 351.96 80.6172C352.117 80.4453 352.341 80.3594 352.632 80.3594C352.924 80.3594 353.145 80.4453 353.296 80.6172C353.453 80.7839 353.531 80.9896 353.531 81.2344C353.531 81.474 353.453 81.6771 353.296 81.8438C353.145 82.0104 352.924 82.0938 352.632 82.0938C352.341 82.0938 352.117 82.0104 351.96 81.8438C351.809 81.6771 351.734 81.474 351.734 81.2344ZM359.312 80.9688C359.656 80.9688 359.973 80.8984 360.265 80.7578C360.557 80.6172 360.796 80.4245 360.984 80.1797C361.171 79.9297 361.278 79.6458 361.304 79.3281H362.679C362.653 79.8281 362.484 80.2943 362.171 80.7266C361.864 81.1536 361.46 81.5 360.96 81.7656C360.46 82.026 359.911 82.1562 359.312 82.1562C358.677 82.1562 358.122 82.0443 357.648 81.8203C357.179 81.5964 356.789 81.2891 356.476 80.8984C356.169 80.5078 355.937 80.0599 355.781 79.5547C355.63 79.0443 355.554 78.5052 355.554 77.9375V77.6094C355.554 77.0417 355.63 76.5052 355.781 76C355.937 75.4896 356.169 75.0391 356.476 74.6484C356.789 74.2578 357.179 73.9505 357.648 73.7266C358.122 73.5026 358.677 73.3906 359.312 73.3906C359.973 73.3906 360.552 73.526 361.046 73.7969C361.541 74.0625 361.929 74.4271 362.21 74.8906C362.497 75.349 362.653 75.8698 362.679 76.4531H361.304C361.278 76.1042 361.179 75.7891 361.007 75.5078C360.841 75.2266 360.611 75.0026 360.32 74.8359C360.033 74.6641 359.697 74.5781 359.312 74.5781C358.869 74.5781 358.497 74.6667 358.195 74.8438C357.898 75.0156 357.661 75.25 357.484 75.5469C357.312 75.8385 357.187 76.1641 357.109 76.5234C357.036 76.8776 357 77.2396 357 77.6094V77.9375C357 78.3073 357.036 78.6719 357.109 79.0312C357.182 79.3906 357.304 79.7161 357.476 80.0078C357.653 80.2995 357.89 80.5339 358.187 80.7109C358.489 80.8828 358.864 80.9688 359.312 80.9688ZM363.921 77.8672V77.6875C363.921 77.0781 364.01 76.513 364.187 75.9922C364.364 75.4661 364.619 75.0104 364.953 74.625C365.286 74.2344 365.69 73.9323 366.164 73.7188C366.638 73.5 367.169 73.3906 367.757 73.3906C368.351 73.3906 368.885 73.5 369.359 73.7188C369.838 73.9323 370.244 74.2344 370.578 74.625C370.916 75.0104 371.174 75.4661 371.351 75.9922C371.528 76.513 371.617 77.0781 371.617 77.6875V77.8672C371.617 78.4766 371.528 79.0417 371.351 79.5625C371.174 80.0833 370.916 80.5391 370.578 80.9297C370.244 81.3151 369.841 81.6172 369.367 81.8359C368.898 82.0495 368.367 82.1562 367.773 82.1562C367.179 82.1562 366.645 82.0495 366.171 81.8359C365.697 81.6172 365.291 81.3151 364.953 80.9297C364.619 80.5391 364.364 80.0833 364.187 79.5625C364.01 79.0417 363.921 78.4766 363.921 77.8672ZM365.367 77.6875V77.8672C365.367 78.2891 365.416 78.6875 365.515 79.0625C365.614 79.4323 365.763 79.7604 365.96 80.0469C366.164 80.3333 366.416 80.5599 366.718 80.7266C367.02 80.888 367.372 80.9688 367.773 80.9688C368.169 80.9688 368.515 80.888 368.812 80.7266C369.114 80.5599 369.364 80.3333 369.562 80.0469C369.76 79.7604 369.908 79.4323 370.007 79.0625C370.111 78.6875 370.164 78.2891 370.164 77.8672V77.6875C370.164 77.2708 370.111 76.8776 370.007 76.5078C369.908 76.1328 369.757 75.8021 369.554 75.5156C369.356 75.224 369.106 74.9948 368.804 74.8281C368.507 74.6615 368.158 74.5781 367.757 74.5781C367.361 74.5781 367.013 74.6615 366.71 74.8281C366.414 74.9948 366.164 75.224 365.96 75.5156C365.763 75.8021 365.614 76.1328 365.515 76.5078C365.416 76.8776 365.367 77.2708 365.367 77.6875ZM374.867 75.2266V82H373.414V73.5469H374.789L374.867 75.2266ZM374.57 77.4531L373.898 77.4297C373.903 76.8516 373.979 76.3177 374.125 75.8281C374.27 75.3333 374.486 74.9036 374.773 74.5391C375.059 74.1745 375.416 73.8932 375.843 73.6953C376.27 73.4922 376.765 73.3906 377.328 73.3906C377.723 73.3906 378.088 73.4479 378.421 73.5625C378.755 73.6719 379.044 73.8464 379.289 74.0859C379.533 74.3255 379.723 74.6328 379.859 75.0078C379.994 75.3828 380.062 75.8359 380.062 76.3672V82H378.617V76.4375C378.617 75.9948 378.541 75.6406 378.39 75.375C378.244 75.1094 378.036 74.9167 377.765 74.7969C377.494 74.6719 377.177 74.6094 376.812 74.6094C376.385 74.6094 376.028 74.6849 375.742 74.8359C375.455 74.987 375.226 75.1953 375.054 75.4609C374.882 75.7266 374.757 76.0312 374.679 76.375C374.606 76.7135 374.57 77.0729 374.57 77.4531ZM380.046 76.6562L379.078 76.9531C379.083 76.4896 379.158 76.0443 379.304 75.6172C379.455 75.1901 379.671 74.8099 379.953 74.4766C380.239 74.1432 380.591 73.8802 381.007 73.6875C381.424 73.4896 381.901 73.3906 382.437 73.3906C382.89 73.3906 383.291 73.4505 383.64 73.5703C383.994 73.6901 384.291 73.875 384.531 74.125C384.776 74.3698 384.96 74.6849 385.085 75.0703C385.21 75.4557 385.273 75.9141 385.273 76.4453V82H383.82V76.4297C383.82 75.9557 383.744 75.5885 383.593 75.3281C383.447 75.0625 383.239 74.8776 382.968 74.7734C382.703 74.6641 382.385 74.6094 382.015 74.6094C381.697 74.6094 381.416 74.6641 381.171 74.7734C380.927 74.8828 380.721 75.0339 380.554 75.2266C380.388 75.4141 380.26 75.6302 380.171 75.875C380.088 76.1198 380.046 76.3802 380.046 76.6562Z" fill="#F72585"/>
<path d="M535.812 57.1719V67.25H534.359V55.5469H535.687L535.812 57.1719ZM541.507 59.7031V59.8672C541.507 60.4818 541.434 61.0521 541.289 61.5781C541.143 62.099 540.929 62.5521 540.648 62.9375C540.372 63.3229 540.031 63.6224 539.625 63.8359C539.218 64.0495 538.752 64.1562 538.226 64.1562C537.69 64.1562 537.216 64.0677 536.804 63.8906C536.393 63.7135 536.044 63.4557 535.757 63.1172C535.471 62.7786 535.242 62.3724 535.07 61.8984C534.903 61.4245 534.789 60.8906 534.726 60.2969V59.4219C534.789 58.7969 534.906 58.237 535.078 57.7422C535.25 57.2474 535.476 56.8255 535.757 56.4766C536.044 56.1224 536.39 55.8542 536.796 55.6719C537.203 55.4844 537.671 55.3906 538.203 55.3906C538.734 55.3906 539.205 55.4948 539.617 55.7031C540.028 55.9062 540.375 56.1979 540.656 56.5781C540.937 56.9583 541.148 57.4141 541.289 57.9453C541.434 58.4714 541.507 59.0573 541.507 59.7031ZM540.054 59.8672V59.7031C540.054 59.2812 540.01 58.8854 539.921 58.5156C539.833 58.1406 539.695 57.8125 539.507 57.5312C539.325 57.2448 539.091 57.0208 538.804 56.8594C538.518 56.6927 538.177 56.6094 537.781 56.6094C537.416 56.6094 537.098 56.6719 536.828 56.7969C536.562 56.9219 536.335 57.0911 536.148 57.3047C535.96 57.513 535.807 57.7526 535.687 58.0234C535.572 58.2891 535.486 58.5651 535.429 58.8516V60.875C535.533 61.2396 535.679 61.5833 535.867 61.9062C536.054 62.224 536.304 62.4818 536.617 62.6797C536.929 62.8724 537.322 62.9688 537.796 62.9688C538.187 62.9688 538.523 62.888 538.804 62.7266C539.091 62.5599 539.325 62.3333 539.507 62.0469C539.695 61.7604 539.833 61.4323 539.921 61.0625C540.01 60.6875 540.054 60.2891 540.054 59.8672ZM544.921 52V64H543.468V52H544.921ZM552.226 62.5547V58.2031C552.226 57.8698 552.158 57.5807 552.023 57.3359C551.893 57.0859 551.695 56.8932 551.429 56.7578C551.164 56.6224 550.835 56.5547 550.445 56.5547C550.08 56.5547 549.76 56.6172 549.484 56.7422C549.213 56.8672 549 57.0312 548.843 57.2344C548.692 57.4375 548.617 57.6562 548.617 57.8906H547.171C547.171 57.5885 547.25 57.2891 547.406 56.9922C547.562 56.6953 547.786 56.4271 548.078 56.1875C548.375 55.9427 548.729 55.75 549.14 55.6094C549.557 55.4635 550.02 55.3906 550.531 55.3906C551.145 55.3906 551.687 55.4948 552.156 55.7031C552.63 55.9115 553 56.2266 553.265 56.6484C553.536 57.0651 553.671 57.5885 553.671 58.2188V62.1562C553.671 62.4375 553.695 62.737 553.742 63.0547C553.794 63.3724 553.869 63.6458 553.968 63.875V64H552.46C552.388 63.8333 552.33 63.612 552.289 63.3359C552.247 63.0547 552.226 62.7943 552.226 62.5547ZM552.476 58.875L552.492 59.8906H551.031C550.619 59.8906 550.252 59.9245 549.929 59.9922C549.606 60.0547 549.335 60.151 549.117 60.2812C548.898 60.4115 548.731 60.5755 548.617 60.7734C548.502 60.9661 548.445 61.1927 548.445 61.4531C548.445 61.7188 548.505 61.9609 548.625 62.1797C548.744 62.3984 548.924 62.5729 549.164 62.7031C549.408 62.8281 549.708 62.8906 550.062 62.8906C550.505 62.8906 550.895 62.7969 551.234 62.6094C551.572 62.4219 551.841 62.1927 552.039 61.9219C552.242 61.651 552.351 61.388 552.367 61.1328L552.984 61.8281C552.947 62.0469 552.848 62.2891 552.687 62.5547C552.526 62.8203 552.309 63.0755 552.039 63.3203C551.773 63.5599 551.455 63.7604 551.085 63.9219C550.721 64.0781 550.309 64.1562 549.851 64.1562C549.278 64.1562 548.776 64.0443 548.343 63.8203C547.916 63.5964 547.583 63.2969 547.343 62.9219C547.109 62.5417 546.992 62.1172 546.992 61.6484C546.992 61.1953 547.08 60.7969 547.257 60.4531C547.434 60.1042 547.69 59.8151 548.023 59.5859C548.356 59.3516 548.757 59.1745 549.226 59.0547C549.695 58.9349 550.218 58.875 550.796 58.875H552.476ZM558.195 63.125L560.546 55.5469H562.093L558.703 65.3047C558.625 65.513 558.52 65.737 558.39 65.9766C558.265 66.2214 558.104 66.4531 557.906 66.6719C557.708 66.8906 557.468 67.0677 557.187 67.2031C556.911 67.3438 556.58 67.4141 556.195 67.4141C556.08 67.4141 555.934 67.3984 555.757 67.3672C555.58 67.3359 555.455 67.3099 555.382 67.2891L555.375 66.1172C555.416 66.1224 555.481 66.1276 555.57 66.1328C555.664 66.1432 555.729 66.1484 555.765 66.1484C556.093 66.1484 556.372 66.1042 556.601 66.0156C556.83 65.9323 557.023 65.7891 557.179 65.5859C557.341 65.388 557.479 65.1146 557.593 64.7656L558.195 63.125ZM556.468 55.5469L558.664 62.1094L559.039 63.6328L558 64.1641L554.89 55.5469H556.468ZM568.32 61.7578C568.32 61.5495 568.273 61.3568 568.179 61.1797C568.091 60.9974 567.906 60.8333 567.625 60.6875C567.348 60.5365 566.932 60.4062 566.375 60.2969C565.906 60.1979 565.481 60.0807 565.101 59.9453C564.726 59.8099 564.406 59.6458 564.14 59.4531C563.88 59.2604 563.679 59.0339 563.539 58.7734C563.398 58.513 563.328 58.2083 563.328 57.8594C563.328 57.526 563.401 57.2109 563.546 56.9141C563.697 56.6172 563.908 56.3542 564.179 56.125C564.455 55.8958 564.786 55.7161 565.171 55.5859C565.557 55.4557 565.986 55.3906 566.46 55.3906C567.138 55.3906 567.716 55.5104 568.195 55.75C568.674 55.9896 569.041 56.3099 569.296 56.7109C569.552 57.1068 569.679 57.5469 569.679 58.0312H568.234C568.234 57.7969 568.164 57.5703 568.023 57.3516C567.888 57.1276 567.687 56.9427 567.421 56.7969C567.161 56.651 566.841 56.5781 566.46 56.5781C566.059 56.5781 565.734 56.6406 565.484 56.7656C565.239 56.8854 565.059 57.0391 564.945 57.2266C564.835 57.4141 564.781 57.612 564.781 57.8203C564.781 57.9766 564.807 58.1172 564.859 58.2422C564.916 58.362 565.015 58.474 565.156 58.5781C565.296 58.6771 565.494 58.7708 565.75 58.8594C566.005 58.9479 566.33 59.0365 566.726 59.125C567.419 59.2812 567.989 59.4688 568.437 59.6875C568.885 59.9062 569.218 60.1745 569.437 60.4922C569.656 60.8099 569.765 61.1953 569.765 61.6484C569.765 62.0182 569.687 62.3568 569.531 62.6641C569.38 62.9714 569.158 63.237 568.867 63.4609C568.58 63.6797 568.236 63.8516 567.835 63.9766C567.44 64.0964 566.994 64.1562 566.5 64.1562C565.755 64.1562 565.125 64.0234 564.609 63.7578C564.093 63.4922 563.703 63.1484 563.437 62.7266C563.171 62.3047 563.039 61.8594 563.039 61.3906H564.492C564.513 61.7865 564.627 62.1016 564.835 62.3359C565.044 62.5651 565.299 62.7292 565.601 62.8281C565.903 62.9219 566.203 62.9688 566.5 62.9688C566.895 62.9688 567.226 62.9167 567.492 62.8125C567.763 62.7083 567.968 62.5651 568.109 62.3828C568.25 62.2005 568.32 61.9922 568.32 61.7578ZM571.687 63.2344C571.687 62.9896 571.763 62.7839 571.914 62.6172C572.07 62.4453 572.294 62.3594 572.585 62.3594C572.877 62.3594 573.098 62.4453 573.25 62.6172C573.406 62.7839 573.484 62.9896 573.484 63.2344C573.484 63.474 573.406 63.6771 573.25 63.8438C573.098 64.0104 572.877 64.0938 572.585 64.0938C572.294 64.0938 572.07 64.0104 571.914 63.8438C571.763 63.6771 571.687 63.474 571.687 63.2344ZM579.265 62.9688C579.609 62.9688 579.927 62.8984 580.218 62.7578C580.51 62.6172 580.75 62.4245 580.937 62.1797C581.125 61.9297 581.231 61.6458 581.257 61.3281H582.632C582.606 61.8281 582.437 62.2943 582.125 62.7266C581.817 63.1536 581.414 63.5 580.914 63.7656C580.414 64.026 579.864 64.1562 579.265 64.1562C578.63 64.1562 578.075 64.0443 577.601 63.8203C577.132 63.5964 576.742 63.2891 576.429 62.8984C576.122 62.5078 575.89 62.0599 575.734 61.5547C575.583 61.0443 575.507 60.5052 575.507 59.9375V59.6094C575.507 59.0417 575.583 58.5052 575.734 58C575.89 57.4896 576.122 57.0391 576.429 56.6484C576.742 56.2578 577.132 55.9505 577.601 55.7266C578.075 55.5026 578.63 55.3906 579.265 55.3906C579.927 55.3906 580.505 55.526 581 55.7969C581.494 56.0625 581.882 56.4271 582.164 56.8906C582.45 57.349 582.606 57.8698 582.632 58.4531H581.257C581.231 58.1042 581.132 57.7891 580.96 57.5078C580.794 57.2266 580.565 57.0026 580.273 56.8359C579.986 56.6641 579.651 56.5781 579.265 56.5781C578.822 56.5781 578.45 56.6667 578.148 56.8438C577.851 57.0156 577.614 57.25 577.437 57.5469C577.265 57.8385 577.14 58.1641 577.062 58.5234C576.989 58.8776 576.953 59.2396 576.953 59.6094V59.9375C576.953 60.3073 576.989 60.6719 577.062 61.0312C577.135 61.3906 577.257 61.7161 577.429 62.0078C577.606 62.2995 577.843 62.5339 578.14 62.7109C578.442 62.8828 578.817 62.9688 579.265 62.9688ZM583.875 59.8672V59.6875C583.875 59.0781 583.963 58.513 584.14 57.9922C584.317 57.4661 584.572 57.0104 584.906 56.625C585.239 56.2344 585.643 55.9323 586.117 55.7188C586.591 55.5 587.122 55.3906 587.71 55.3906C588.304 55.3906 588.838 55.5 589.312 55.7188C589.791 55.9323 590.197 56.2344 590.531 56.625C590.869 57.0104 591.127 57.4661 591.304 57.9922C591.481 58.513 591.57 59.0781 591.57 59.6875V59.8672C591.57 60.4766 591.481 61.0417 591.304 61.5625C591.127 62.0833 590.869 62.5391 590.531 62.9297C590.197 63.3151 589.794 63.6172 589.32 63.8359C588.851 64.0495 588.32 64.1562 587.726 64.1562C587.132 64.1562 586.598 64.0495 586.125 63.8359C585.651 63.6172 585.244 63.3151 584.906 62.9297C584.572 62.5391 584.317 62.0833 584.14 61.5625C583.963 61.0417 583.875 60.4766 583.875 59.8672ZM585.32 59.6875V59.8672C585.32 60.2891 585.369 60.6875 585.468 61.0625C585.567 61.4323 585.716 61.7604 585.914 62.0469C586.117 62.3333 586.369 62.5599 586.671 62.7266C586.973 62.888 587.325 62.9688 587.726 62.9688C588.122 62.9688 588.468 62.888 588.765 62.7266C589.067 62.5599 589.317 62.3333 589.515 62.0469C589.713 61.7604 589.861 61.4323 589.96 61.0625C590.065 60.6875 590.117 60.2891 590.117 59.8672V59.6875C590.117 59.2708 590.065 58.8776 589.96 58.5078C589.861 58.1328 589.71 57.8021 589.507 57.5156C589.309 57.224 589.059 56.9948 588.757 56.8281C588.46 56.6615 588.111 56.5781 587.71 56.5781C587.315 56.5781 586.966 56.6615 586.664 56.8281C586.367 56.9948 586.117 57.224 585.914 57.5156C585.716 57.8021 585.567 58.1328 585.468 58.5078C585.369 58.8776 585.32 59.2708 585.32 59.6875ZM594.82 57.2266V64H593.367V55.5469H594.742L594.82 57.2266ZM594.523 59.4531L593.851 59.4297C593.856 58.8516 593.932 58.3177 594.078 57.8281C594.223 57.3333 594.44 56.9036 594.726 56.5391C595.013 56.1745 595.369 55.8932 595.796 55.6953C596.223 55.4922 596.718 55.3906 597.281 55.3906C597.677 55.3906 598.041 55.4479 598.375 55.5625C598.708 55.6719 598.997 55.8464 599.242 56.0859C599.486 56.3255 599.677 56.6328 599.812 57.0078C599.947 57.3828 600.015 57.8359 600.015 58.3672V64H598.57V58.4375C598.57 57.9948 598.494 57.6406 598.343 57.375C598.197 57.1094 597.989 56.9167 597.718 56.7969C597.447 56.6719 597.13 56.6094 596.765 56.6094C596.338 56.6094 595.981 56.6849 595.695 56.8359C595.408 56.987 595.179 57.1953 595.007 57.4609C594.835 57.7266 594.71 58.0312 594.632 58.375C594.559 58.7135 594.523 59.0729 594.523 59.4531ZM600 58.6562L599.031 58.9531C599.036 58.4896 599.111 58.0443 599.257 57.6172C599.408 57.1901 599.625 56.8099 599.906 56.4766C600.192 56.1432 600.544 55.8802 600.96 55.6875C601.377 55.4896 601.854 55.3906 602.39 55.3906C602.843 55.3906 603.244 55.4505 603.593 55.5703C603.947 55.6901 604.244 55.875 604.484 56.125C604.729 56.3698 604.914 56.6849 605.039 57.0703C605.164 57.4557 605.226 57.9141 605.226 58.4453V64H603.773V58.4297C603.773 57.9557 603.697 57.5885 603.546 57.3281C603.401 57.0625 603.192 56.8776 602.921 56.7734C602.656 56.6641 602.338 56.6094 601.968 56.6094C601.651 56.6094 601.369 56.6641 601.125 56.7734C600.88 56.8828 600.674 57.0339 600.507 57.2266C600.341 57.4141 600.213 57.6302 600.125 57.875C600.041 58.1198 600 58.3802 600 58.6562Z" fill="#F72585"/>
<path d="M27 82.5H214C218.142 82.5 221.5 85.8579 221.5 90V98.5723C221.5 102.714 218.142 106.072 214 106.072H27C22.8579 106.072 19.5 102.714 19.5 98.5723V90C19.5 85.8579 22.8579 82.5 27 82.5Z" stroke="#3A5270"/>
<path d="M474 46.5H661C665.142 46.5 668.5 49.8579 668.5 54V62.5723C668.5 66.7145 665.142 70.0723 661 70.0723H474C469.858 70.0723 466.5 66.7144 466.5 62.5723V54C466.5 49.8579 469.858 46.5 474 46.5Z" stroke="#3A5270"/>
<path d="M253 64.5H440C444.142 64.5 447.5 67.8579 447.5 72V80.5723C447.5 84.7145 444.142 88.0723 440 88.0723H253C248.858 88.0723 245.5 84.7144 245.5 80.5723V72C245.5 67.8579 248.858 64.5 253 64.5Z" stroke="#3A5270"/>
<circle cx="123.686" cy="362.681" r="41.365" stroke="#001233" stroke-width="0.631273"/>
<path d="M135.498 356.983C139.056 359.107 139.056 364.259 135.498 366.383L122.123 374.368C118.475 376.546 113.844 373.917 113.844 369.668V353.698C113.844 349.449 118.475 346.82 122.123 348.998L135.498 356.983Z" fill="#1B13C0" fill-opacity="0.6"/>
<path d="M135.381 366.187L122.007 374.172C118.51 376.26 114.072 373.74 114.072 369.668V353.698C114.072 349.626 118.51 347.107 122.007 349.194L135.381 357.179C138.791 359.214 138.791 364.152 135.381 366.187Z" stroke="#001233" stroke-opacity="0.6" stroke-width="0.456158"/>
<path d="M35.6324 366.833L51.2886 376.848C53.512 378.271 56.4291 376.674 56.4291 374.035V354.003C56.4291 351.364 53.512 349.767 51.2886 351.189L35.6324 361.205C33.5788 362.519 33.5788 365.519 35.6324 366.833Z" stroke="#1B13C0" stroke-opacity="0.6" stroke-width="1.33"/>
<path d="M211.738 365.495L196.082 375.51C193.858 376.933 190.941 375.336 190.941 372.696V352.665C190.941 350.025 193.858 348.429 196.082 349.851L211.738 359.867C213.791 361.181 213.791 364.181 211.738 365.495Z" stroke="#1B13C0" stroke-opacity="0.6" stroke-width="1.33"/>
<rect x="78" y="246.265" width="12.2488" height="57.7524" rx="3" fill="#FBF7F7"/>
<rect x="78.5" y="246.765" width="11.2488" height="56.7524" rx="2.5" stroke="#001233" stroke-opacity="0.6"/>
<rect x="101.022" y="246.265" width="12.2488" height="57.7524" rx="3" fill="#FBF7F7"/>
<rect x="101.522" y="246.765" width="11.2488" height="56.7524" rx="2.5" stroke="#001233" stroke-opacity="0.6"/>
<rect x="112.533" y="251.823" width="12.2488" height="52.1936" rx="3" fill="#FBF7F7"/>
<rect x="113.033" y="252.323" width="11.2488" height="51.1936" rx="2.5" stroke="#001233" stroke-opacity="0.6"/>
<rect x="124.045" y="268.036" width="12.2488" height="35.9808" rx="3" fill="#FBF7F7"/>
<rect x="124.545" y="268.536" width="11.2488" height="34.9808" rx="2.5" stroke="#001233" stroke-opacity="0.6"/>
<rect x="135.556" y="246.265" width="12.2488" height="57.7524" rx="3" fill="#FBF7F7"/>
<rect x="136.056" y="246.765" width="11.2488" height="56.7524" rx="2.5" stroke="#001233" stroke-opacity="0.6"/>
<rect x="147.066" y="243.022" width="12.2488" height="60.9949" rx="3" fill="#FBF7F7"/>
<rect x="147.566" y="243.522" width="11.2488" height="59.9949" rx="2.5" stroke="#001233" stroke-opacity="0.6"/>
<rect x="158.578" y="270.768" width="12.2488" height="33.2485" rx="3" fill="#FBF7F7"/>
<rect x="159.078" y="271.268" width="11.2488" height="32.2485" rx="2.5" stroke="#001233" stroke-opacity="0.6"/>
<rect x="89.5107" y="237" width="12.2488" height="67.0169" rx="3" fill="#FBF7F7"/>
<rect x="90.0107" y="237.5" width="11.2488" height="66.0169" rx="2.5" stroke="#001233" stroke-opacity="0.6"/>
<rect x="287.5" y="319.5" width="130.533" height="9.46997" rx="2.5" stroke="#001233" stroke-opacity="0.7"/>
<rect x="287.5" y="357.5" width="130.533" height="9.46997" rx="2.5" stroke="#001233" stroke-opacity="0.7"/>
<rect x="287.5" y="338.5" width="130.533" height="9.46997" rx="2.5" stroke="#001233" stroke-opacity="0.7"/>
<path fill-rule="evenodd" clip-rule="evenodd" d="M544.824 224.307C530.562 224.307 519 212.745 519 198.483C519 184.221 530.562 172.659 544.824 172.659C548.561 172.659 552.113 173.453 555.319 174.881C556.78 162.005 567.71 152 580.977 152C595.24 152 606.801 163.562 606.801 177.824C606.801 179.595 606.623 181.324 606.284 182.995C606.456 182.991 606.628 182.989 606.801 182.989C618.211 182.989 627.461 192.238 627.461 203.648C627.461 215.058 618.211 224.307 606.801 224.307H544.824Z" fill="#FBF7F7"/>
<path d="M555.075 175.429L555.823 175.762L555.916 174.949C557.342 162.372 568.019 152.6 580.977 152.6C594.908 152.6 606.201 163.893 606.201 177.824C606.201 179.555 606.027 181.244 605.696 182.876L605.546 183.613L606.298 183.595C606.466 183.591 606.633 183.589 606.801 183.589C617.88 183.589 626.861 192.57 626.861 203.648C626.861 214.726 617.88 223.707 606.801 223.707H544.824C530.893 223.707 519.6 212.414 519.6 198.483C519.6 184.552 530.893 173.259 544.824 173.259C548.475 173.259 551.944 174.035 555.075 175.429Z" stroke="#1B13C0" stroke-opacity="0.6" stroke-width="1.2"/>
<g filter="url(#filter2_d_566855_667)">
<path d="M589.708 225.75V204.667C589.706 204.379 589.621 204.095 589.46 203.836C589.298 203.577 589.063 203.35 588.774 203.172C588.488 202.992 588.154 202.864 587.797 202.797C587.44 202.731 587.068 202.728 586.709 202.788L564.584 206.622C564.037 206.718 563.55 206.956 563.201 207.298C562.852 207.639 562.664 208.063 562.666 208.5V224.485C560.988 223.867 559.098 223.69 557.28 223.981C555.462 224.272 553.814 225.014 552.583 226.097C551.352 227.18 550.604 228.545 550.453 229.987C550.301 231.429 550.753 232.87 551.741 234.095C552.729 235.32 554.2 236.262 555.933 236.78C557.665 237.298 559.567 237.364 561.352 236.968C563.137 236.572 564.709 235.735 565.832 234.583C566.956 233.432 567.57 232.027 567.583 230.58C567.608 230.248 567.608 229.915 567.583 229.583V210.033L584.791 207.062V220.652C583.112 220.034 581.221 219.857 579.402 220.148C577.583 220.439 575.934 221.183 574.704 222.267C573.473 223.351 572.727 224.717 572.577 226.16C572.427 227.603 572.881 229.045 573.872 230.27C574.863 231.494 576.337 232.435 578.072 232.951C579.807 233.467 581.71 233.53 583.494 233.13C585.279 232.731 586.85 231.891 587.97 230.737C589.091 229.582 589.7 228.175 589.708 226.727C589.731 226.402 589.731 226.076 589.708 225.75V225.75Z" fill="#001233" fill-opacity="0.6"/>
<path d="M584.291 220.483V220.652H584.791L584.964 220.182C584.907 220.161 584.849 220.141 584.791 220.121V207.57L584.876 207.555L584.791 207.062H584.291V207.149L567.583 210.033V229.583C567.608 229.915 567.608 230.248 567.583 230.58C567.57 232.027 566.956 233.432 565.832 234.583C564.709 235.735 563.137 236.572 561.352 236.968C559.567 237.364 557.665 237.298 555.933 236.78C554.2 236.262 552.729 235.32 551.741 234.095C550.753 232.87 550.301 231.429 550.453 229.987C550.604 228.545 551.352 227.18 552.583 226.097C553.814 225.014 555.462 224.272 557.28 223.981C558.92 223.719 560.618 223.837 562.166 224.316V224.485H562.666L562.839 224.016C562.781 223.995 562.724 223.974 562.666 223.954V208.5C562.664 208.063 562.852 207.639 563.201 207.298C563.55 206.956 564.037 206.718 564.584 206.622L584.291 220.483ZM584.291 220.483C582.742 220.003 581.042 219.885 579.402 220.148C577.583 220.439 575.934 221.183 574.704 222.267C573.473 223.351 572.727 224.717 572.577 226.16C572.427 227.603 572.881 229.045 573.872 230.27C574.863 231.494 576.337 232.435 578.072 232.951C579.807 233.467 581.71 233.53 583.494 233.13C585.279 232.731 586.85 231.891 587.97 230.737C589.091 229.582 589.7 228.175 589.708 226.727L584.291 220.483ZM589.708 225.75L589.209 225.786C589.231 226.087 589.231 226.39 589.209 226.692L589.208 226.708L589.208 226.725C589.201 228.029 588.653 229.315 587.611 230.388C586.568 231.464 585.089 232.261 583.385 232.642C581.683 233.023 579.867 232.963 578.214 232.472C576.561 231.98 575.179 231.09 574.261 229.955C573.345 228.824 572.939 227.512 573.074 226.212C573.209 224.911 573.885 223.655 575.034 222.642C576.186 221.628 577.744 220.92 579.481 220.642C581.218 220.364 583.022 220.533 584.618 221.121L585.291 221.368V220.652V207.062V206.469L584.706 206.57L567.498 209.541L567.083 209.612V210.033V229.583V229.602L567.084 229.621C567.108 229.928 567.108 230.235 567.084 230.542L567.083 230.559L567.083 230.576C567.071 231.879 566.519 233.163 565.475 234.234C564.428 235.307 562.947 236.102 561.244 236.479C559.541 236.857 557.726 236.794 556.076 236.301C554.425 235.807 553.045 234.916 552.13 233.781C551.217 232.65 550.813 231.338 550.95 230.039C551.087 228.738 551.763 227.484 552.913 226.472C554.065 225.459 555.622 224.752 557.359 224.475C559.095 224.197 560.898 224.367 562.493 224.954L563.166 225.202V224.485L563.166 208.5L563.166 208.497C563.164 208.213 563.286 207.914 563.551 207.655C563.818 207.393 564.209 207.195 564.67 207.114C564.67 207.114 564.67 207.114 564.67 207.114L586.792 203.281C586.792 203.281 586.792 203.281 586.793 203.281C587.094 203.231 587.406 203.233 587.706 203.289C588.006 203.345 588.279 203.451 588.507 203.595L588.507 203.595L588.511 203.597C588.743 203.74 588.919 203.915 589.035 204.101C589.151 204.286 589.206 204.479 589.208 204.668V225.75H589.708Z" stroke="#1B13C0" stroke-opacity="0.6"/>
</g>
<mask id="path-41-inside-4_566855_667" fill="white">
<path d="M604.536 310.063V315.712C604.536 318.455 601.676 320.715 598.036 320.715C594.448 320.715 591.536 318.455 591.536 315.712V310.063C591.536 308.725 592.221 307.442 593.44 306.496C594.659 305.55 596.312 305.019 598.036 305.019C601.676 305.019 604.536 307.278 604.536 310.063M581.5 314.662V343.997C581.5 346.781 578.588 349.04 575 349.04C571.412 349.04 568.5 346.781 568.5 343.997V314.662C568.5 311.919 571.412 309.619 575 309.619C578.588 309.619 581.5 311.919 581.5 314.662ZM627 326.525V332.174C627 334.918 624.088 337.178 620.5 337.178C616.912 337.178 614 334.918 614 332.174V326.525C614 323.741 616.912 321.522 620.5 321.522C624.088 321.522 627 323.741 627 326.525ZM536 326.525V332.174C536 334.918 533.088 337.178 529.5 337.178C525.86 337.178 523 334.918 523 332.174V326.525C523 323.741 525.86 321.522 529.5 321.522C533.088 321.522 536 323.741 536 326.525ZM558.464 342.988V348.597C558.464 351.34 555.552 353.56 551.964 353.56C548.376 353.56 545.464 351.34 545.464 348.597V342.988C545.464 340.164 548.376 337.944 551.964 337.944C553.688 337.944 555.341 338.476 556.56 339.422C557.779 340.367 558.464 341.65 558.464 342.988M581.5 359.047V364.656C581.5 365.994 580.815 367.276 579.596 368.222C578.377 369.168 576.724 369.7 575 369.7C573.276 369.7 571.623 369.168 570.404 368.222C569.185 367.276 568.5 365.994 568.5 364.656V359.047C568.5 357.71 569.185 356.427 570.404 355.481C571.623 354.535 573.276 354.003 575 354.003C576.724 354.003 578.377 354.535 579.596 355.481C580.815 356.427 581.5 357.71 581.5 359.047M581.5 294.044V299.652C581.5 300.99 580.815 302.273 579.596 303.219C578.377 304.165 576.724 304.696 575 304.696C573.276 304.696 571.623 304.165 570.404 303.219C569.185 302.273 568.5 300.99 568.5 299.652V294.044C568.5 291.219 571.412 289 575 289C576.724 289 578.377 289.531 579.596 290.477C580.815 291.423 581.5 292.706 581.5 294.044M604.536 330.722V348.597C604.536 351.381 601.676 353.56 598.036 353.56C594.448 353.56 591.536 351.381 591.536 348.597V330.722C591.536 327.897 594.448 325.678 598.036 325.678C601.676 325.678 604.536 327.897 604.536 330.722ZM558.464 310.063V327.938C558.464 330.762 555.552 332.981 551.964 332.981C551.11 332.981 550.265 332.851 549.477 332.597C548.688 332.344 547.971 331.972 547.368 331.504C546.764 331.036 546.285 330.48 545.959 329.868C545.632 329.256 545.464 328.6 545.464 327.938V310.063C545.464 308.725 546.149 307.442 547.368 306.496C548.587 305.55 550.24 305.019 551.964 305.019C553.688 305.019 555.341 305.55 556.56 306.496C557.779 307.442 558.464 308.725 558.464 310.063Z"/>
</mask>
<path d="M598.036 305.019V306.319V305.019ZM551.964 337.944V336.644V337.944ZM581.5 364.656H580.2H581.5ZM568.5 359.047H567.2H568.5ZM581.5 299.652H580.2H581.5ZM575 289V287.7V289ZM551.964 332.981V331.681V332.981ZM545.464 310.063H544.164H545.464ZM551.964 305.019V306.319V305.019ZM603.236 310.063V315.712H605.836V310.063H603.236ZM603.236 315.712C603.236 317.45 601.284 319.415 598.036 319.415V322.015C602.068 322.015 605.836 319.461 605.836 315.712H603.236ZM598.036 319.415C596.507 319.415 595.167 318.932 594.235 318.213C593.303 317.494 592.836 316.595 592.836 315.712H590.236C590.236 317.572 591.225 319.175 592.646 320.271C594.067 321.368 595.977 322.015 598.036 322.015V319.415ZM592.836 315.712V310.063H590.236V315.712H592.836ZM592.836 310.063C592.836 309.192 593.28 308.266 594.237 307.523L592.643 305.469C591.162 306.618 590.236 308.258 590.236 310.063H592.836ZM594.237 307.523C595.201 306.775 596.565 306.319 598.036 306.319V303.719C596.059 303.719 594.117 304.326 592.643 305.469L594.237 307.523ZM598.036 306.319C601.277 306.319 603.236 308.278 603.236 310.063H605.836C605.836 306.279 602.075 303.719 598.036 303.719V306.319ZM580.2 314.662V343.997H582.8V314.662H580.2ZM580.2 343.997C580.2 345.775 578.196 347.74 575 347.74V350.34C578.98 350.34 582.8 347.786 582.8 343.997H580.2ZM575 347.74C571.804 347.74 569.8 345.775 569.8 343.997H567.2C567.2 347.786 571.02 350.34 575 350.34V347.74ZM569.8 343.997V314.662H567.2V343.997H569.8ZM569.8 314.662C569.8 313.776 570.269 312.866 571.204 312.137C572.138 311.408 573.477 310.919 575 310.919V308.319C572.935 308.319 571.024 308.979 569.605 310.087C568.187 311.193 567.2 312.805 567.2 314.662H569.8ZM575 310.919C576.523 310.919 577.862 311.408 578.796 312.137C579.731 312.866 580.2 313.776 580.2 314.662H582.8C582.8 312.805 581.813 311.193 580.395 310.087C578.976 308.979 577.065 308.319 575 308.319V310.919ZM625.7 326.525V332.174H628.3V326.525H625.7ZM625.7 332.174C625.7 333.058 625.233 333.957 624.301 334.676C623.369 335.395 622.029 335.878 620.5 335.878V338.478C622.559 338.478 624.469 337.831 625.89 336.734C627.311 335.637 628.3 334.035 628.3 332.174H625.7ZM620.5 335.878C618.971 335.878 617.631 335.395 616.699 334.676C615.767 333.957 615.3 333.058 615.3 332.174H612.7C612.7 334.035 613.689 335.637 615.11 336.734C616.531 337.831 618.441 338.478 620.5 338.478V335.878ZM615.3 332.174V326.525H612.7V332.174H615.3ZM615.3 326.525C615.3 324.758 617.289 322.822 620.5 322.822V320.222C616.535 320.222 612.7 322.724 612.7 326.525H615.3ZM620.5 322.822C623.711 322.822 625.7 324.758 625.7 326.525H628.3C628.3 322.724 624.465 320.222 620.5 320.222V322.822ZM534.7 326.525V332.174H537.3V326.525H534.7ZM534.7 332.174C534.7 333.058 534.233 333.957 533.301 334.676C532.369 335.395 531.029 335.878 529.5 335.878V338.478C531.559 338.478 533.469 337.831 534.89 336.734C536.311 335.637 537.3 334.035 537.3 332.174H534.7ZM529.5 335.878C526.252 335.878 524.3 333.913 524.3 332.174H521.7C521.7 335.924 525.468 338.478 529.5 338.478V335.878ZM524.3 332.174V326.525H521.7V332.174H524.3ZM524.3 326.525C524.3 324.752 526.244 322.822 529.5 322.822V320.222C525.476 320.222 521.7 322.73 521.7 326.525H524.3ZM529.5 322.822C532.711 322.822 534.7 324.758 534.7 326.525H537.3C537.3 322.724 533.465 320.222 529.5 320.222V322.822ZM557.164 342.988V348.597H559.764V342.988H557.164ZM557.164 348.597C557.164 349.477 556.7 350.365 555.771 351.074C554.841 351.784 553.499 352.26 551.964 352.26V354.86C554.017 354.86 555.925 354.226 557.348 353.141C558.772 352.054 559.764 350.46 559.764 348.597H557.164ZM551.964 352.26C550.429 352.26 549.087 351.784 548.157 351.074C547.228 350.365 546.764 349.477 546.764 348.597H544.164C544.164 350.46 545.156 352.054 546.58 353.141C548.003 354.226 549.911 354.86 551.964 354.86V352.26ZM546.764 348.597V342.988H544.164V348.597H546.764ZM546.764 342.988C546.764 341.175 548.761 339.244 551.964 339.244V336.644C547.991 336.644 544.164 339.152 544.164 342.988H546.764ZM551.964 339.244C553.435 339.244 554.799 339.7 555.763 340.449L557.357 338.394C555.883 337.251 553.941 336.644 551.964 336.644V339.244ZM555.763 340.449C556.72 341.191 557.164 342.117 557.164 342.988H559.764C559.764 341.184 558.838 339.544 557.357 338.394L555.763 340.449ZM580.2 359.047V364.656H582.8V359.047H580.2ZM580.2 364.656C580.2 365.527 579.756 366.453 578.799 367.195L580.393 369.249C581.874 368.1 582.8 366.46 582.8 364.656H580.2ZM578.799 367.195C577.835 367.943 576.471 368.4 575 368.4V371C576.977 371 578.919 370.393 580.393 369.249L578.799 367.195ZM575 368.4C573.529 368.4 572.165 367.943 571.201 367.195L569.607 369.249C571.081 370.393 573.023 371 575 371V368.4ZM571.201 367.195C570.244 366.453 569.8 365.527 569.8 364.656H567.2C567.2 366.46 568.126 368.1 569.607 369.249L571.201 367.195ZM569.8 364.656V359.047H567.2V364.656H569.8ZM569.8 359.047C569.8 358.176 570.244 357.25 571.201 356.508L569.607 354.454C568.126 355.603 567.2 357.243 567.2 359.047H569.8ZM571.201 356.508C572.165 355.76 573.529 355.303 575 355.303V352.703C573.023 352.703 571.081 353.31 569.607 354.454L571.201 356.508ZM575 355.303C576.471 355.303 577.835 355.76 578.799 356.508L580.393 354.454C578.919 353.31 576.977 352.703 575 352.703V355.303ZM578.799 356.508C579.756 357.25 580.2 358.176 580.2 359.047H582.8C582.8 357.243 581.874 355.603 580.393 354.454L578.799 356.508ZM580.2 294.044V299.652H582.8V294.044H580.2ZM580.2 299.652C580.2 300.523 579.756 301.449 578.799 302.192L580.393 304.246C581.874 303.096 582.8 301.457 582.8 299.652H580.2ZM578.799 302.192C577.835 302.94 576.471 303.396 575 303.396V305.996C576.977 305.996 578.919 305.389 580.393 304.246L578.799 302.192ZM575 303.396C573.529 303.396 572.165 302.94 571.201 302.192L569.607 304.246C571.081 305.389 573.023 305.996 575 305.996V303.396ZM571.201 302.192C570.244 301.449 569.8 300.523 569.8 299.652H567.2C567.2 301.457 568.126 303.096 569.607 304.246L571.201 302.192ZM569.8 299.652V294.044H567.2V299.652H569.8ZM569.8 294.044C569.8 292.23 571.797 290.3 575 290.3V287.7C571.027 287.7 567.2 290.208 567.2 294.044H569.8ZM575 290.3C576.471 290.3 577.835 290.756 578.799 291.504L580.393 289.45C578.919 288.307 576.977 287.7 575 287.7V290.3ZM578.799 291.504C579.756 292.247 580.2 293.173 580.2 294.044H582.8C582.8 292.239 581.874 290.6 580.393 289.45L578.799 291.504ZM603.236 330.722V348.597H605.836V330.722H603.236ZM603.236 348.597C603.236 350.358 601.306 352.26 598.036 352.26V354.86C602.046 354.86 605.836 352.403 605.836 348.597H603.236ZM598.036 352.26C596.496 352.26 595.154 351.79 594.226 351.087C593.303 350.386 592.836 349.501 592.836 348.597H590.236C590.236 350.476 591.225 352.073 592.655 353.158C594.08 354.239 595.988 354.86 598.036 354.86V352.26ZM592.836 348.597V330.722H590.236V348.597H592.836ZM592.836 330.722C592.836 328.908 594.833 326.978 598.036 326.978V324.378C594.063 324.378 590.236 326.886 590.236 330.722H592.836ZM598.036 326.978C601.284 326.978 603.236 328.903 603.236 330.722H605.836C605.836 326.892 602.068 324.378 598.036 324.378V326.978ZM557.164 310.063V327.938H559.764V310.063H557.164ZM557.164 327.938C557.164 329.751 555.167 331.681 551.964 331.681V334.281C555.937 334.281 559.764 331.773 559.764 327.938H557.164ZM551.964 331.681C551.241 331.681 550.531 331.571 549.874 331.36L549.079 333.835C550 334.131 550.98 334.281 551.964 334.281V331.681ZM549.874 331.36C549.218 331.149 548.639 330.845 548.165 330.477L546.571 332.531C547.304 333.1 548.158 333.539 549.079 333.835L549.874 331.36ZM548.165 330.477C547.691 330.109 547.338 329.69 547.106 329.255L544.812 330.48C545.233 331.269 545.838 331.962 546.571 332.531L548.165 330.477ZM547.106 329.255C546.875 328.823 546.764 328.376 546.764 327.938H544.164C544.164 328.824 544.39 329.689 544.812 330.48L547.106 329.255ZM546.764 327.938V310.063H544.164V327.938H546.764ZM546.764 310.063C546.764 309.192 547.208 308.266 548.165 307.523L546.571 305.469C545.09 306.618 544.164 308.258 544.164 310.063H546.764ZM548.165 307.523C549.129 306.775 550.493 306.319 551.964 306.319V303.719C549.987 303.719 548.045 304.326 546.571 305.469L548.165 307.523ZM551.964 306.319C553.435 306.319 554.799 306.775 555.763 307.523L557.357 305.469C555.883 304.326 553.941 303.719 551.964 303.719V306.319ZM555.763 307.523C556.72 308.266 557.164 309.192 557.164 310.063H559.764C559.764 308.258 558.838 306.618 557.357 305.469L555.763 307.523Z" fill="#1B13C0" fill-opacity="0.6" mask="url(#path-41-inside-4_566855_667)"/>
<path d="M211.5 300.5C208.662 264.052 241.066 240.887 269.652 242.326M269.652 242.326L254.629 254M269.652 242.326L254.629 228" stroke="#56BD66" stroke-width="2"/>
<path d="M211.5 300.5C208.662 264.052 241.066 240.887 269.652 242.326M269.652 242.326L254.629 254M269.652 242.326L254.629 228" stroke="#56BD66" stroke-width="2"/>
<path d="M211.5 300.5C208.662 264.052 241.066 240.887 269.652 242.326M269.652 242.326L254.629 254M269.652 242.326L254.629 228" stroke="#56BD66" stroke-width="2"/>
<path d="M211.5 300.5C208.662 264.052 241.066 240.887 269.652 242.326M269.652 242.326L254.629 254M269.652 242.326L254.629 228" stroke="#56BD66" stroke-width="2"/>
<path d="M211.5 300.5C208.662 264.052 241.066 240.887 269.652 242.326M269.652 242.326L254.629 254M269.652 242.326L254.629 228" stroke="#56BD66" stroke-width="2"/>
<path d="M436.174 260.5C433.335 224.052 465.74 200.887 494.326 202.326M494.326 202.326L479.303 214M494.326 202.326L479.303 188" stroke="#56BD66" stroke-width="2"/>
<path d="M436.174 260.5C433.335 224.052 465.74 200.887 494.326 202.326M494.326 202.326L479.303 214M494.326 202.326L479.303 188" stroke="#56BD66" stroke-width="2"/>
<path d="M436.174 260.5C433.335 224.052 465.74 200.887 494.326 202.326M494.326 202.326L479.303 214M494.326 202.326L479.303 188" stroke="#56BD66" stroke-width="2"/>
<path d="M436.174 260.5C433.335 224.052 465.74 200.887 494.326 202.326M494.326 202.326L479.303 214M494.326 202.326L479.303 188" stroke="#56BD66" stroke-width="2"/>
<path d="M436.174 260.5C433.335 224.052 465.74 200.887 494.326 202.326M494.326 202.326L479.303 214M494.326 202.326L479.303 188" stroke="#56BD66" stroke-width="2"/>
<rect x="285" y="201" width="134" height="85" rx="17" fill="#FBF7F7"/>
<rect x="285.5" y="201.5" width="133" height="84" rx="16.5" stroke="#1B13C0" stroke-opacity="0.6"/>
<path d="M364.709 236.1C367.151 237.619 367.151 241.173 364.709 242.692L348.934 252.504C346.348 254.112 343.002 252.253 343.002 249.208V229.584C343.002 226.539 346.348 224.68 348.934 226.288L364.709 236.1Z" fill="white"/>
<path d="M364.181 241.843L348.406 251.655C346.486 252.848 344.002 251.468 344.002 249.208V229.584C344.002 227.323 346.486 225.943 348.406 227.137L364.181 236.949C365.994 238.076 365.994 240.715 364.181 241.843Z" stroke="#1B13C0" stroke-opacity="0.6" stroke-width="2"/>
<g filter="url(#filter3_f_566855_667)">
<line x1="515.999" y1="253.85" x2="633.999" y2="252.85" stroke="#001233" stroke-width="0.3"/>
</g>
<defs>
<filter id="filter0_d_566855_667" x="0" y="16" width="693" height="524" filterUnits="userSpaceOnUse" color-interpolation-filters="sRGB">
<feFlood flood-opacity="0" result="BackgroundImageFix"/>
<feColorMatrix in="SourceAlpha" type="matrix" values="0 0 0 0 0 0 0 0 0 0 0 0 0 0 0 0 0 0 127 0" result="hardAlpha"/>
<feOffset dy="4"/>
<feGaussianBlur stdDeviation="2"/>
<feComposite in2="hardAlpha" operator="out"/>
<feColorMatrix type="matrix" values="0 0 0 0 0 0 0 0 0 0 0 0 0 0 0 0 0 0 0.25 0"/>
<feBlend mode="normal" in2="BackgroundImageFix" result="effect1_dropShadow_566855_667"/>
<feBlend mode="normal" in="SourceGraphic" in2="effect1_dropShadow_566855_667" result="shape"/>
</filter>
<filter id="filter1_b_566855_667" x="0" y="48" width="249" height="488" filterUnits="userSpaceOnUse" color-interpolation-filters="sRGB">
<feFlood flood-opacity="0" result="BackgroundImageFix"/>
<feGaussianBlur in="BackgroundImageFix" stdDeviation="2"/>
<feComposite in2="SourceAlpha" operator="in" result="effect1_backgroundBlur_566855_667"/>
<feBlend mode="normal" in="SourceGraphic" in2="effect1_backgroundBlur_566855_667" result="shape"/>
</filter>
<filter id="filter2_d_566855_667" x="546.424" y="202.745" width="47.3018" height="42.478" filterUnits="userSpaceOnUse" color-interpolation-filters="sRGB">
<feFlood flood-opacity="0" result="BackgroundImageFix"/>
<feColorMatrix in="SourceAlpha" type="matrix" values="0 0 0 0 0 0 0 0 0 0 0 0 0 0 0 0 0 0 127 0" result="hardAlpha"/>
<feOffset dy="4"/>
<feGaussianBlur stdDeviation="2"/>
<feComposite in2="hardAlpha" operator="out"/>
<feColorMatrix type="matrix" values="0 0 0 0 0 0 0 0 0 0 0 0 0 0 0 0 0 0 0.25 0"/>
<feBlend mode="normal" in2="BackgroundImageFix" result="effect1_dropShadow_566855_667"/>
<feBlend mode="normal" in="SourceGraphic" in2="effect1_dropShadow_566855_667" result="shape"/>
</filter>
<filter id="filter3_f_566855_667" x="511.997" y="248.7" width="126.003" height="9.30005" filterUnits="userSpaceOnUse" color-interpolation-filters="sRGB">
<feFlood flood-opacity="0" result="BackgroundImageFix"/>
<feBlend mode="normal" in="SourceGraphic" in2="BackgroundImageFix" result="shape"/>
<feGaussianBlur stdDeviation="2" result="effect1_foregroundBlur_566855_667"/>
</filter>
</defs>
</svg>
