<svg width="355" height="198" fill="none" xmlns="http://www.w3.org/2000/svg"><path d="M284.208 139.863H252.05c-2.209 0-4.025-1.799-3.666-3.979 5.646-34.344 81.245-75.205 95.063-82.41a4.008 4.008 0 0 0 2.16-3.578v-22.72a4 4 0 0 0-3.892-3.998l-75.483-2.04a3.996 3.996 0 0 1-1.249-.236L232.276 9.1a4.004 4.004 0 0 0-1.358-.237H126.961c-.501 0-.997.094-1.464.277L95.691 20.862a4 4 0 0 1-1.363.276l-81.356 2.047a4 4 0 0 0-3.9 3.998v22.778c0 1.478.803 2.831 2.113 3.517 38.84 20.346 95.381 41.319 98.844 82.387.186 2.201-1.624 3.998-3.833 3.998h-30.66a4 4 0 0 0-3.764 2.647l-14.739 41.011c-.937 2.606.995 5.352 3.764 5.352h101.486a4 4 0 0 0 3.559-2.173l7.225-14.08a4 4 0 0 1 3.559-2.174h7.193a4 4 0 0 1 3.448 1.972l8.519 14.483a4 4 0 0 0 3.448 1.972h100.798c2.809 0 4.743-2.819 3.732-5.44l-15.825-41.01a3.999 3.999 0 0 0-3.731-2.56z" fill="#D3D8E0" stroke="#BBBFC7" stroke-width="17"/></svg>