<svg width="465" height="400" fill="none" xmlns="http://www.w3.org/2000/svg"><path d="M337.882 318.412c24.965 6.614 94.335-45.402 94.025-63.666-10.75-20.77-32.053-50.119-34.77-74.208-1.631-14.45-48.384-68.49-58.015-73.188-24.596-16.894-56.493-61.734-75.401-64.962l-68.508 46.388c-4.066 2.754 25.714 45.763 27.262 70.913.463 7.528 6.271 20.066 14.726 34.25 11.55 19.374 28.038 41.818 42.593 58.762 3.905 4.546 7.671 8.696 11.165 12.285 8.433 8.662 12.488 6.38 18.68 13.842l28.243 39.584z" fill="#D3D8E0" stroke="#BBBFC7" stroke-width="18"/><path d="M95.301 367.39c9.666-7.422 185.809-99.284 195.659-102.404-14.555-16.944-42.209-51.673-53.758-71.047-58.68 77.264-172.924 103.023-178.954 111.929-6.029 8.907 27.388 68.944 37.053 61.522z" fill="#BBBFC7" stroke="#BBBFC7" stroke-width="18"/></svg>